<svg xmlns="http://www.w3.org/2000/svg" xmlns:xlink="http://www.w3.org/1999/xlink" xmlns:lucid="lucid" width="1321" height="763"><g transform="translate(-199.5 -2759.5)" lucid:page-tab-id=".Q4MUjXso07N"><path d="M0 0h1920v4317.54H0z" fill="#fff"/><path d="M840 3180h240v60H840z" fill="none"/><use xlink:href="#a" transform="matrix(1,0,0,1,840,3180) translate(86.525 33.6)"/><path d="M650 2868c0-4.42 3.58-8 8-8h224c4.42 0 8 3.58 8 8v408c0 4.42-3.58 8-8 8H658c-4.42 0-8-3.58-8-8z" stroke="#333" fill="#fff"/><path d="M650 2897.6h240" stroke="#333" fill="none"/><use xlink:href="#b" transform="matrix(1,0,0,1,658,2868) translate(92.025 14.6)"/><use xlink:href="#c" transform="matrix(1,0,0,1,662,2905.6) translate(0 26.322222222222187)"/><use xlink:href="#d" transform="matrix(1,0,0,1,662,2905.6) translate(52.40246913580247 26.322222222222187)"/><use xlink:href="#e" transform="matrix(1,0,0,1,662,2905.6) translate(0 49.544444444444416)"/><use xlink:href="#f" transform="matrix(1,0,0,1,662,2905.6) translate(0 72.76666666666665)"/><use xlink:href="#g" transform="matrix(1,0,0,1,662,2905.6) translate(89.93333333333334 72.76666666666665)"/><use xlink:href="#h" transform="matrix(1,0,0,1,662,2905.6) translate(0 95.98888888888888)"/><use xlink:href="#i" transform="matrix(1,0,0,1,662,2905.6) translate(0 119.21111111111111)"/><use xlink:href="#j" transform="matrix(1,0,0,1,662,2905.6) translate(38.750617283950625 119.21111111111111)"/><use xlink:href="#k" transform="matrix(1,0,0,1,662,2905.6) translate(57.51604938271606 119.21111111111111)"/><use xlink:href="#l" transform="matrix(1,0,0,1,662,2905.6) translate(0 142.43333333333334)"/><use xlink:href="#m" transform="matrix(1,0,0,1,662,2905.6) translate(59.01728395061729 142.43333333333334)"/><use xlink:href="#n" transform="matrix(1,0,0,1,662,2905.6) translate(0 165.65555555555557)"/><use xlink:href="#o" transform="matrix(1,0,0,1,662,2905.6) translate(82.42716049382716 165.65555555555557)"/><use xlink:href="#p" transform="matrix(1,0,0,1,662,2905.6) translate(0 188.8777777777778)"/><use xlink:href="#q" transform="matrix(1,0,0,1,662,2905.6) translate(0 212.10000000000002)"/><use xlink:href="#r" transform="matrix(1,0,0,1,662,2905.6) translate(39.31358024691359 212.10000000000002)"/><use xlink:href="#s" transform="matrix(1,0,0,1,662,2905.6) translate(0 235.32222222222225)"/><use xlink:href="#t" transform="matrix(1,0,0,1,662,2905.6) translate(55.17037037037038 235.32222222222225)"/><use xlink:href="#u" transform="matrix(1,0,0,1,662,2905.6) translate(0 258.5444444444445)"/><use xlink:href="#v" transform="matrix(1,0,0,1,662,2905.6) translate(65.02222222222223 258.5444444444445)"/><use xlink:href="#w" transform="matrix(1,0,0,1,662,2905.6) translate(0 281.7666666666667)"/><use xlink:href="#v" transform="matrix(1,0,0,1,662,2905.6) translate(68.77530864197531 281.7666666666667)"/><use xlink:href="#x" transform="matrix(1,0,0,1,662,2905.6) translate(0 304.98888888888894)"/><use xlink:href="#y" transform="matrix(1,0,0,1,662,2905.6) translate(53.48148148148148 304.98888888888894)"/><use xlink:href="#z" transform="matrix(1,0,0,1,662,2905.6) translate(0 328.21111111111117)"/><use xlink:href="#g" transform="matrix(1,0,0,1,662,2905.6) translate(84.30370370370372 328.21111111111117)"/><use xlink:href="#A" transform="matrix(1,0,0,1,662,2905.6) translate(0 351.4333333333334)"/><path d="M1040 2788c0-4.42 3.58-8 8-8h224c4.42 0 8 3.58 8 8v127c0 4.42-3.58 8-8 8h-224c-4.42 0-8-3.58-8-8z" stroke="#333" fill="#fff"/><path d="M1040 2817.6h240" stroke="#333" fill="none"/><use xlink:href="#B" transform="matrix(1,0,0,1,1048,2788) translate(79.1 14.6)"/><use xlink:href="#C" transform="matrix(1,0,0,1,1052,2825.6) translate(0 27)"/><use xlink:href="#D" transform="matrix(1,0,0,1,1052,2825.6) translate(77.95 27)"/><use xlink:href="#E" transform="matrix(1,0,0,1,1052,2825.6) translate(0 48.6)"/><use xlink:href="#F" transform="matrix(1,0,0,1,1052,2825.6) translate(32.95 48.6)"/><use xlink:href="#G" transform="matrix(1,0,0,1,1052,2825.6) translate(0 70.2)"/><use xlink:href="#H" transform="matrix(1,0,0,1,1052,2825.6) translate(40.900000000000006 70.2)"/><path d="M1040 3188c0-4.42 3.58-8 8-8h224c4.42 0 8 3.58 8 8v64c0 4.42-3.58 8-8 8h-224c-4.42 0-8-3.58-8-8z" stroke="#333" fill="#fff"/><path d="M1040 3217.6h240" stroke="#333" fill="none"/><use xlink:href="#I" transform="matrix(1,0,0,1,1048,3188) translate(4.2749999999999915 14.6)"/><use xlink:href="#J" transform="matrix(1,0,0,1,1048,3188) translate(121.925 14.6)"/><use xlink:href="#K" transform="matrix(1,0,0,1,1052,3225.6) translate(0 17.1)"/><path d="M891 2917.5h62c6.63 0 12-5.36 12-12v-42c0-6.63 5.37-12 12-12h62" stroke="#333" fill="none"/><path d="M891 2918h-.5v-1h.5zM1039.5 2852h-.5v-1h.5z" stroke="#333" stroke-width=".05" fill="#333"/><use xlink:href="#L" transform="matrix(1,0,0,1,890.5,2921.5103431155785) translate(0 14.4)"/><use xlink:href="#M" transform="matrix(1,0,0,1,1032,2825.8999999999996) translate(0 14.4)"/><path d="M891 3220.45h78.78c.12 0 .22-.1.22-.23 0-.12.1-.22.22-.22H1039" stroke="#333" fill="none"/><path d="M891 3220.95h-.5v-1h.5zM1039.5 3220.5h-.5v-1h.5z" stroke="#333" stroke-width=".05" fill="#333"/><use xlink:href="#L" transform="matrix(1,0,0,1,890.5,3224.4474272930647) translate(0 14.4)"/><use xlink:href="#M" transform="matrix(1,0,0,1,1032,3194.3999999999996) translate(0 14.4)"/><path d="M1040 3028c0-4.42 3.58-8 8-8h224c4.42 0 8 3.58 8 8v64c0 4.42-3.58 8-8 8h-224c-4.42 0-8-3.58-8-8z" stroke="#333" fill="#fff"/><path d="M1040 3057.6h240" stroke="#333" fill="none"/><use xlink:href="#N" transform="matrix(1,0,0,1,1048,3028) translate(84.575 14.6)"/><use xlink:href="#O" transform="matrix(1,0,0,1,1052,3065.6) translate(0 17.1)"/><path d="M1160 2924v95" stroke="#333" fill="none"/><path d="M1160.5 2924h-1v-.5h1zM1160.5 3019.5h-1v-.5h1z" stroke="#333" stroke-width=".05" fill="#333"/><use xlink:href="#M" transform="matrix(1,0,0,1,1145,2923.7) translate(0 14.4)"/><use xlink:href="#L" transform="matrix(1,0,0,1,1168,2997.7) translate(0 14.4)"/><path d="M1320 2931c0-4.42 3.58-8 8-8h164c4.42 0 8 3.58 8 8v81c0 4.42-3.58 8-8 8h-164c-4.42 0-8-3.58-8-8z" stroke="#333" fill="#fff"/><path d="M1320 2960.6h180" stroke="#333" fill="none"/><use xlink:href="#P" transform="matrix(1,0,0,1,1328,2931) translate(13.649999999999991 14.6)"/><use xlink:href="#Q" transform="matrix(1,0,0,1,1328,2931) translate(57.55 14.6)"/><g><use xlink:href="#R" transform="matrix(1,0,0,1,1332,2968.6) translate(0 25.6)"/></g><path d="M1319 2971.5h-1.96m-3.93 0h-3.9m-3.94 0h-3.92m-3.93 0h-3.9m-3.94 0h-3.92m-3.93 0h-3.9m-3.94 0h-3.92m-3.93 0h-3.9m-3.94 0h-3.92m-3.93 0h-3.9m-3.94 0h-1.96l-.53-.22-.22-.53-.22-.53-.53-.22h-1.96m-3.93 0h-3.9m-3.94 0h-3.92m-3.93 0h-3.9m-3.94 0h-3.92m-3.93 0h-3.9m-3.94 0h-3.92m-3.93 0h-3.9m-3.94 0h-3.92m-3.93 0h-3.9m-3.94 0h-1.96" stroke="#333" fill="none"/><path d="M1319.5 2972h-.5v-1h.5z" stroke="#333" stroke-width=".05" fill="#333"/><path d="M1160.5 2970h-.5" stroke="#333" fill="none"/><path d="M220 3048c0-4.42 3.58-8 8-8h224c4.42 0 8 3.58 8 8v84c0 4.42-3.58 8-8 8H228c-4.42 0-8-3.58-8-8z" stroke="#333" fill="#fff"/><path d="M220 3077.6h240" stroke="#333" fill="none"/><g><use xlink:href="#S" transform="matrix(1,0,0,1,228,3048) translate(64.1 14.6)"/></g><g><use xlink:href="#T" transform="matrix(1,0,0,1,232,3085.6) translate(0 27.1)"/></g><path d="M461 3090h188" stroke="#333" fill="none"/><path d="M461 3090.5h-.5v-1h.5zM649.5 3090.5h-.5v-1h.5z" stroke="#333" stroke-width=".05" fill="#333"/><g><use xlink:href="#U" transform="matrix(1,0,0,1,461,3094) translate(0 14.4)"/></g><g><use xlink:href="#M" transform="matrix(1,0,0,1,642,3064.3999999999996) translate(0 14.4)"/></g><path d="M220 3164c0-4.42 3.58-8 8-8h224c4.42 0 8 3.58 8 8v192c0 4.42-3.58 8-8 8H228c-4.42 0-8-3.58-8-8z" stroke="#333" fill="#fff"/><path d="M220 3193.6h240" stroke="#333" fill="none"/><g><use xlink:href="#V" transform="matrix(1,0,0,1,228,3164) translate(76.075 14.6)"/></g><g><use xlink:href="#W" transform="matrix(1,0,0,1,232,3201.6) translate(0 27.1)"/><use xlink:href="#X" transform="matrix(1,0,0,1,232,3201.6) translate(0 48.7)"/><use xlink:href="#Y" transform="matrix(1,0,0,1,232,3201.6) translate(0 70.30000000000001)"/><use xlink:href="#Z" transform="matrix(1,0,0,1,232,3201.6) translate(0 91.90000000000002)"/><use xlink:href="#aa" transform="matrix(1,0,0,1,232,3201.6) translate(0 113.50000000000001)"/><use xlink:href="#ab" transform="matrix(1,0,0,1,232,3201.6) translate(0 135.1)"/></g><path d="M461 3260h188" stroke="#333" fill="none"/><path d="M461 3260.5h-.5v-1h.5zM649.5 3260.5h-.5v-1h.5z" stroke="#333" stroke-width=".05" fill="#333"/><g><use xlink:href="#ac" transform="matrix(1,0,0,1,460.5,3264) translate(0 14.4)"/></g><g><use xlink:href="#U" transform="matrix(1,0,0,1,622.9999999999999,3234.3999999999996) translate(0 14.4)"/></g><path d="M220 3388c0-4.42 3.58-8 8-8h224c4.42 0 8 3.58 8 8v106c0 4.42-3.58 8-8 8H228c-4.42 0-8-3.58-8-8z" stroke="#333" fill="#fff"/><path d="M220 3417.6h240" stroke="#333" fill="none"/><g><use xlink:href="#ad" transform="matrix(1,0,0,1,228,3388) translate(9.799999999999983 14.6)"/><use xlink:href="#ae" transform="matrix(1,0,0,1,228,3388) translate(126.45 14.6)"/></g><g><use xlink:href="#W" transform="matrix(1,0,0,1,232,3425.6) translate(0 27.299999999999997)"/><use xlink:href="#af" transform="matrix(1,0,0,1,232,3425.6) translate(0 48.9)"/></g><path d="M461 3441h297c6.63 0 12-5.37 12-12v-144" stroke="#333" fill="none"/><path d="M461 3441.5h-.5v-1h.5zM770.5 3285h-1v-.5h1z" stroke="#333" stroke-width=".05" fill="#333"/><g><use xlink:href="#U" transform="matrix(1,0,0,1,461,3445) translate(0 14.4)"/></g><g><use xlink:href="#L" transform="matrix(1,0,0,1,752,3284.7) translate(0 14.4)"/></g><defs><path d="M233-177c-1 41-23 64-60 70L243 0h-38l-65-103H63V0H30v-248c88 3 205-21 203 71zM63-129c60-2 137 13 137-47 0-61-80-42-137-45v92" id="ag"/><path d="M100-194c63 0 86 42 84 106H49c0 40 14 67 53 68 26 1 43-12 49-29l28 8c-11 28-37 45-77 45C44 4 14-33 15-96c1-61 26-98 85-98zm52 81c6-60-76-77-97-28-3 7-6 17-6 28h103" id="ah"/><path d="M145-31C134-9 116 4 85 4 32 4 16-35 15-94c0-59 17-99 70-100 32-1 48 14 60 33 0-11-1-24 2-32h30l-1 268h-32zM93-21c41 0 51-33 51-76s-8-73-50-73c-40 0-46 35-46 75s5 74 45 74" id="ai"/><path d="M84 4C-5 8 30-112 23-190h32v120c0 31 7 50 39 49 72-2 45-101 50-169h31l1 190h-30c-1-10 1-25-2-33-11 22-28 36-60 37" id="aj"/><path d="M135-143c-3-34-86-38-87 0 15 53 115 12 119 90S17 21 10-45l28-5c4 36 97 45 98 0-10-56-113-15-118-90-4-57 82-63 122-42 12 7 21 19 24 35" id="ak"/><path d="M59-47c-2 24 18 29 38 22v24C64 9 27 4 27-40v-127H5v-23h24l9-43h21v43h35v23H59v120" id="al"/><g id="a"><use transform="matrix(0.05,0,0,0.05,0,0)" xlink:href="#ag"/><use transform="matrix(0.05,0,0,0.05,12.950000000000001,0)" xlink:href="#ah"/><use transform="matrix(0.05,0,0,0.05,22.950000000000003,0)" xlink:href="#ai"/><use transform="matrix(0.05,0,0,0.05,32.95,0)" xlink:href="#aj"/><use transform="matrix(0.05,0,0,0.05,42.95,0)" xlink:href="#ah"/><use transform="matrix(0.05,0,0,0.05,52.95,0)" xlink:href="#ak"/><use transform="matrix(0.05,0,0,0.05,61.95,0)" xlink:href="#al"/></g><path d="M238-95c0 69-44 99-111 99C63 4 22-25 22-93v-155h51v151c-1 38 19 59 55 60 90 1 49-130 58-211h52v153" id="am"/><path d="M137-138c1-29-70-34-71-4 15 46 118 7 119 86 1 83-164 76-172 9l43-7c4 19 20 25 44 25 33 8 57-30 24-41C81-84 22-81 20-136c-2-80 154-74 161-7" id="an"/><path d="M185-48c-13 30-37 53-82 52C43 2 14-33 14-96s30-98 90-98c62 0 83 45 84 108H66c0 31 8 55 39 56 18 0 30-7 34-22zm-45-69c5-46-57-63-70-21-2 6-4 13-4 21h74" id="ao"/><path d="M135-150c-39-12-60 13-60 57V0H25l-1-190h47c2 13-1 29 3 40 6-28 27-53 61-41v41" id="ap"/><g id="b"><use transform="matrix(0.05,0,0,0.05,0,0)" xlink:href="#am"/><use transform="matrix(0.05,0,0,0.05,12.950000000000001,0)" xlink:href="#an"/><use transform="matrix(0.05,0,0,0.05,22.950000000000003,0)" xlink:href="#ao"/><use transform="matrix(0.05,0,0,0.05,32.95,0)" xlink:href="#ap"/></g><path d="M30-248c87 1 191-15 191 75 0 78-77 80-158 76V0H30v-248zm33 125c57 0 124 11 124-50 0-59-68-47-124-48v98" id="aq"/><path d="M114-163C36-179 61-72 57 0H25l-1-190h30c1 12-1 29 2 39 6-27 23-49 58-41v29" id="ar"/><path d="M100-194c62-1 85 37 85 99 1 63-27 99-86 99S16-35 15-95c0-66 28-99 85-99zM99-20c44 1 53-31 53-75 0-43-8-75-51-75s-53 32-53 75 10 74 51 75" id="as"/><path d="M101-234c-31-9-42 10-38 44h38v23H63V0H32v-167H5v-23h27c-7-52 17-82 69-68v24" id="at"/><path d="M24-231v-30h32v30H24zM24 0v-190h32V0H24" id="au"/><path d="M24 0v-261h32V0H24" id="av"/><g id="c"><use transform="matrix(0.04691358024691358,0,0,0.04691358024691358,0,0)" xlink:href="#aq"/><use transform="matrix(0.04691358024691358,0,0,0.04691358024691358,11.25925925925926,0)" xlink:href="#ar"/><use transform="matrix(0.04691358024691358,0,0,0.04691358024691358,16.841975308641977,0)" xlink:href="#as"/><use transform="matrix(0.04691358024691358,0,0,0.04691358024691358,26.224691358024693,0)" xlink:href="#at"/><use transform="matrix(0.04691358024691358,0,0,0.04691358024691358,30.91604938271605,0)" xlink:href="#au"/><use transform="matrix(0.04691358024691358,0,0,0.04691358024691358,34.62222222222222,0)" xlink:href="#av"/><use transform="matrix(0.04691358024691358,0,0,0.04691358024691358,38.32839506172839,0)" xlink:href="#ah"/></g><path d="M115-194c55 1 70 41 70 98S169 2 115 4C84 4 66-9 55-30l1 105H24l-1-265h31l2 30c10-21 28-34 59-34zm-8 174c40 0 45-34 45-75s-6-73-45-74c-42 0-51 32-51 76 0 43 10 73 51 73" id="aw"/><path d="M96-169c-40 0-48 33-48 73s9 75 48 75c24 0 41-14 43-38l32 2c-6 37-31 61-74 61-59 0-76-41-82-99-10-93 101-131 147-64 4 7 5 14 7 22l-32 3c-4-21-16-35-41-35" id="ax"/><g id="d"><use transform="matrix(0.04691358024691358,0,0,0.04691358024691358,0,0)" xlink:href="#aw"/><use transform="matrix(0.04691358024691358,0,0,0.04691358024691358,9.382716049382717,0)" xlink:href="#au"/><use transform="matrix(0.04691358024691358,0,0,0.04691358024691358,13.08888888888889,0)" xlink:href="#ax"/><use transform="matrix(0.04691358024691358,0,0,0.04691358024691358,21.533333333333335,0)" xlink:href="#al"/><use transform="matrix(0.04691358024691358,0,0,0.04691358024691358,26.224691358024693,0)" xlink:href="#aj"/><use transform="matrix(0.04691358024691358,0,0,0.04691358024691358,35.60740740740741,0)" xlink:href="#ar"/><use transform="matrix(0.04691358024691358,0,0,0.04691358024691358,41.190123456790126,0)" xlink:href="#ah"/></g><path d="M190 0L58-211 59 0H30v-248h39L202-35l-2-213h31V0h-41" id="ay"/><path d="M141-36C126-15 110 5 73 4 37 3 15-17 15-53c-1-64 63-63 125-63 3-35-9-54-41-54-24 1-41 7-42 31l-33-3c5-37 33-52 76-52 45 0 72 20 72 64v82c-1 20 7 32 28 27v20c-31 9-61-2-59-35zM48-53c0 20 12 33 32 33 41-3 63-29 60-74-43 2-92-5-92 41" id="az"/><path d="M210-169c-67 3-38 105-44 169h-31v-121c0-29-5-50-35-48C34-165 62-65 56 0H25l-1-190h30c1 10-1 24 2 32 10-44 99-50 107 0 11-21 27-35 58-36 85-2 47 119 55 194h-31v-121c0-29-5-49-35-48" id="aA"/><g id="e"><use transform="matrix(0.04691358024691358,0,0,0.04691358024691358,0,0)" xlink:href="#ay"/><use transform="matrix(0.04691358024691358,0,0,0.04691358024691358,12.150617283950618,0)" xlink:href="#az"/><use transform="matrix(0.04691358024691358,0,0,0.04691358024691358,21.533333333333335,0)" xlink:href="#aA"/><use transform="matrix(0.04691358024691358,0,0,0.04691358024691358,35.5604938271605,0)" xlink:href="#ah"/></g><path d="M33 0v-248h34V0H33" id="aB"/><path d="M117-194c89-4 53 116 60 194h-32v-121c0-31-8-49-39-48C34-167 62-67 57 0H25l-1-190h30c1 10-1 24 2 32 11-22 29-35 61-36" id="aC"/><g id="f"><use transform="matrix(0.04691358024691358,0,0,0.04691358024691358,0,0)" xlink:href="#aB"/><use transform="matrix(0.04691358024691358,0,0,0.04691358024691358,4.691358024691358,0)" xlink:href="#aC"/><use transform="matrix(0.04691358024691358,0,0,0.04691358024691358,14.074074074074074,0)" xlink:href="#ak"/><use transform="matrix(0.04691358024691358,0,0,0.04691358024691358,22.51851851851852,0)" xlink:href="#al"/><use transform="matrix(0.04691358024691358,0,0,0.04691358024691358,27.209876543209877,0)" xlink:href="#au"/><use transform="matrix(0.04691358024691358,0,0,0.04691358024691358,30.91604938271605,0)" xlink:href="#al"/><use transform="matrix(0.04691358024691358,0,0,0.04691358024691358,35.60740740740741,0)" xlink:href="#aj"/><use transform="matrix(0.04691358024691358,0,0,0.04691358024691358,44.99012345679012,0)" xlink:href="#al"/><use transform="matrix(0.04691358024691358,0,0,0.04691358024691358,49.681481481481484,0)" xlink:href="#au"/><use transform="matrix(0.04691358024691358,0,0,0.04691358024691358,53.38765432098766,0)" xlink:href="#as"/><use transform="matrix(0.04691358024691358,0,0,0.04691358024691358,62.77037037037037,0)" xlink:href="#aC"/><use transform="matrix(0.04691358024691358,0,0,0.04691358024691358,72.1530864197531,0)" xlink:href="#az"/><use transform="matrix(0.04691358024691358,0,0,0.04691358024691358,81.53580246913582,0)" xlink:href="#av"/></g><g id="g"><use transform="matrix(0.04691358024691358,0,0,0.04691358024691358,0,0)" xlink:href="#ah"/><use transform="matrix(0.04691358024691358,0,0,0.04691358024691358,9.382716049382717,0)" xlink:href="#aA"/><use transform="matrix(0.04691358024691358,0,0,0.04691358024691358,23.409876543209876,0)" xlink:href="#az"/><use transform="matrix(0.04691358024691358,0,0,0.04691358024691358,32.79259259259259,0)" xlink:href="#au"/><use transform="matrix(0.04691358024691358,0,0,0.04691358024691358,36.498765432098764,0)" xlink:href="#av"/></g><path d="M212-179c-10-28-35-45-73-45-59 0-87 40-87 99 0 60 29 101 89 101 43 0 62-24 78-52l27 14C228-24 195 4 139 4 59 4 22-46 18-125c-6-104 99-153 187-111 19 9 31 26 39 46" id="aD"/><g id="h"><use transform="matrix(0.04691358024691358,0,0,0.04691358024691358,0,0)" xlink:href="#aD"/><use transform="matrix(0.04691358024691358,0,0,0.04691358024691358,12.150617283950618,0)" xlink:href="#as"/><use transform="matrix(0.04691358024691358,0,0,0.04691358024691358,21.533333333333335,0)" xlink:href="#aj"/><use transform="matrix(0.04691358024691358,0,0,0.04691358024691358,30.91604938271605,0)" xlink:href="#ar"/><use transform="matrix(0.04691358024691358,0,0,0.04691358024691358,36.49876543209877,0)" xlink:href="#ak"/><use transform="matrix(0.04691358024691358,0,0,0.04691358024691358,44.943209876543214,0)" xlink:href="#ah"/></g><path d="M137-103V0h-34v-103L8-248h37l75 118 75-118h37" id="aE"/><g id="i"><use transform="matrix(0.04691358024691358,0,0,0.04691358024691358,0,0)" xlink:href="#aE"/><use transform="matrix(0.04691358024691358,0,0,0.04691358024691358,9.711111111111112,0)" xlink:href="#ah"/><use transform="matrix(0.04691358024691358,0,0,0.04691358024691358,19.09382716049383,0)" xlink:href="#az"/><use transform="matrix(0.04691358024691358,0,0,0.04691358024691358,28.476543209876546,0)" xlink:href="#ar"/></g><g id="j"><use transform="matrix(0.04691358024691358,0,0,0.04691358024691358,0,0)" xlink:href="#as"/><use transform="matrix(0.04691358024691358,0,0,0.04691358024691358,9.382716049382717,0)" xlink:href="#at"/></g><path d="M85-194c31 0 48 13 60 33l-1-100h32l1 261h-30c-2-10 0-23-3-31C134-8 116 4 85 4 32 4 16-35 15-94c0-66 23-100 70-100zm9 24c-40 0-46 34-46 75 0 40 6 74 45 74 42 0 51-32 51-76 0-42-9-74-50-73" id="aF"/><path d="M179-190L93 31C79 59 56 82 12 73V49c39 6 53-20 64-50L1-190h34L92-34l54-156h33" id="aG"/><g id="k"><use transform="matrix(0.04691358024691358,0,0,0.04691358024691358,0,0)" xlink:href="#ak"/><use transform="matrix(0.04691358024691358,0,0,0.04691358024691358,8.444444444444445,0)" xlink:href="#al"/><use transform="matrix(0.04691358024691358,0,0,0.04691358024691358,13.135802469135804,0)" xlink:href="#aj"/><use transform="matrix(0.04691358024691358,0,0,0.04691358024691358,22.51851851851852,0)" xlink:href="#aF"/><use transform="matrix(0.04691358024691358,0,0,0.04691358024691358,31.901234567901238,0)" xlink:href="#aG"/></g><g id="l"><use transform="matrix(0.04691358024691358,0,0,0.04691358024691358,0,0)" xlink:href="#aD"/><use transform="matrix(0.04691358024691358,0,0,0.04691358024691358,12.150617283950618,0)" xlink:href="#as"/><use transform="matrix(0.04691358024691358,0,0,0.04691358024691358,21.533333333333335,0)" xlink:href="#aj"/><use transform="matrix(0.04691358024691358,0,0,0.04691358024691358,30.91604938271605,0)" xlink:href="#ar"/><use transform="matrix(0.04691358024691358,0,0,0.04691358024691358,36.49876543209877,0)" xlink:href="#ak"/><use transform="matrix(0.04691358024691358,0,0,0.04691358024691358,44.943209876543214,0)" xlink:href="#ah"/></g><g id="m"><use transform="matrix(0.04691358024691358,0,0,0.04691358024691358,0,0)" xlink:href="#ak"/><use transform="matrix(0.04691358024691358,0,0,0.04691358024691358,8.444444444444445,0)" xlink:href="#al"/><use transform="matrix(0.04691358024691358,0,0,0.04691358024691358,13.135802469135804,0)" xlink:href="#az"/><use transform="matrix(0.04691358024691358,0,0,0.04691358024691358,22.51851851851852,0)" xlink:href="#al"/><use transform="matrix(0.04691358024691358,0,0,0.04691358024691358,27.209876543209877,0)" xlink:href="#ah"/></g><path d="M205 0l-28-72H64L36 0H1l101-248h38L239 0h-34zm-38-99l-47-123c-12 45-31 82-46 123h93" id="aH"/><g id="n"><use transform="matrix(0.04691358024691358,0,0,0.04691358024691358,0,0)" xlink:href="#aH"/><use transform="matrix(0.04691358024691358,0,0,0.04691358024691358,11.25925925925926,0)" xlink:href="#aF"/><use transform="matrix(0.04691358024691358,0,0,0.04691358024691358,20.641975308641975,0)" xlink:href="#aA"/><use transform="matrix(0.04691358024691358,0,0,0.04691358024691358,34.669135802469135,0)" xlink:href="#au"/><use transform="matrix(0.04691358024691358,0,0,0.04691358024691358,38.37530864197531,0)" xlink:href="#ak"/><use transform="matrix(0.04691358024691358,0,0,0.04691358024691358,46.81975308641975,0)" xlink:href="#ak"/><use transform="matrix(0.04691358024691358,0,0,0.04691358024691358,55.26419753086419,0)" xlink:href="#au"/><use transform="matrix(0.04691358024691358,0,0,0.04691358024691358,58.97037037037036,0)" xlink:href="#as"/><use transform="matrix(0.04691358024691358,0,0,0.04691358024691358,68.35308641975308,0)" xlink:href="#aC"/></g><g id="o"><use transform="matrix(0.04691358024691358,0,0,0.04691358024691358,0,0)" xlink:href="#aG"/><use transform="matrix(0.04691358024691358,0,0,0.04691358024691358,8.444444444444445,0)" xlink:href="#ah"/><use transform="matrix(0.04691358024691358,0,0,0.04691358024691358,17.82716049382716,0)" xlink:href="#az"/><use transform="matrix(0.04691358024691358,0,0,0.04691358024691358,27.209876543209877,0)" xlink:href="#ar"/></g><path d="M185-189c-5-48-123-54-124 2 14 75 158 14 163 119 3 78-121 87-175 55-17-10-28-26-33-46l33-7c5 56 141 63 141-1 0-78-155-14-162-118-5-82 145-84 179-34 5 7 8 16 11 25" id="aI"/><path d="M141 0L90-78 38 0H4l68-98-65-92h35l48 74 47-74h35l-64 92 68 98h-35" id="aJ"/><g id="p"><use transform="matrix(0.04691358024691358,0,0,0.04691358024691358,0,0)" xlink:href="#aI"/><use transform="matrix(0.04691358024691358,0,0,0.04691358024691358,11.25925925925926,0)" xlink:href="#ah"/><use transform="matrix(0.04691358024691358,0,0,0.04691358024691358,20.641975308641975,0)" xlink:href="#aJ"/></g><path d="M160-131c35 5 61 23 61 61C221 17 115-2 30 0v-248c76 3 177-17 177 60 0 33-19 50-47 57zm-97-11c50-1 110 9 110-42 0-47-63-36-110-37v79zm0 115c55-2 124 14 124-45 0-56-70-42-124-44v89" id="aK"/><path d="M106-169C34-169 62-67 57 0H25v-261h32l-1 103c12-21 28-36 61-36 89 0 53 116 60 194h-32v-121c2-32-8-49-39-48" id="aL"/><g id="q"><use transform="matrix(0.04691358024691358,0,0,0.04691358024691358,0,0)" xlink:href="#aK"/><use transform="matrix(0.04691358024691358,0,0,0.04691358024691358,11.25925925925926,0)" xlink:href="#au"/><use transform="matrix(0.04691358024691358,0,0,0.04691358024691358,14.965432098765433,0)" xlink:href="#ar"/><use transform="matrix(0.04691358024691358,0,0,0.04691358024691358,20.54814814814815,0)" xlink:href="#al"/><use transform="matrix(0.04691358024691358,0,0,0.04691358024691358,25.23950617283951,0)" xlink:href="#aL"/></g><g id="r"><use transform="matrix(0.04691358024691358,0,0,0.04691358024691358,0,0)" xlink:href="#aF"/><use transform="matrix(0.04691358024691358,0,0,0.04691358024691358,9.382716049382717,0)" xlink:href="#az"/><use transform="matrix(0.04691358024691358,0,0,0.04691358024691358,18.765432098765434,0)" xlink:href="#al"/><use transform="matrix(0.04691358024691358,0,0,0.04691358024691358,23.45679012345679,0)" xlink:href="#ah"/></g><path d="M240 0l2-218c-23 76-54 145-80 218h-23L58-218 59 0H30v-248h44l77 211c21-75 51-140 76-211h43V0h-30" id="aM"/><g id="s"><use transform="matrix(0.04691358024691358,0,0,0.04691358024691358,0,0)" xlink:href="#aM"/><use transform="matrix(0.04691358024691358,0,0,0.04691358024691358,14.02716049382716,0)" xlink:href="#az"/><use transform="matrix(0.04691358024691358,0,0,0.04691358024691358,23.409876543209876,0)" xlink:href="#ar"/><use transform="matrix(0.04691358024691358,0,0,0.04691358024691358,28.992592592592594,0)" xlink:href="#au"/><use transform="matrix(0.04691358024691358,0,0,0.04691358024691358,32.69876543209877,0)" xlink:href="#al"/><use transform="matrix(0.04691358024691358,0,0,0.04691358024691358,37.39012345679013,0)" xlink:href="#az"/><use transform="matrix(0.04691358024691358,0,0,0.04691358024691358,46.77283950617284,0)" xlink:href="#av"/></g><g id="t"><use transform="matrix(0.04691358024691358,0,0,0.04691358024691358,0,0)" xlink:href="#ak"/><use transform="matrix(0.04691358024691358,0,0,0.04691358024691358,8.444444444444445,0)" xlink:href="#al"/><use transform="matrix(0.04691358024691358,0,0,0.04691358024691358,13.135802469135804,0)" xlink:href="#az"/><use transform="matrix(0.04691358024691358,0,0,0.04691358024691358,22.51851851851852,0)" xlink:href="#al"/><use transform="matrix(0.04691358024691358,0,0,0.04691358024691358,27.209876543209877,0)" xlink:href="#aj"/><use transform="matrix(0.04691358024691358,0,0,0.04691358024691358,36.592592592592595,0)" xlink:href="#ak"/></g><path d="M63-220v92h138v28H63V0H30v-248h175v28H63" id="aN"/><path d="M47-170H22l-4-78h33" id="aO"/><g id="u"><use transform="matrix(0.04691358024691358,0,0,0.04691358024691358,0,0)" xlink:href="#aN"/><use transform="matrix(0.04691358024691358,0,0,0.04691358024691358,10.274074074074075,0)" xlink:href="#az"/><use transform="matrix(0.04691358024691358,0,0,0.04691358024691358,19.656790123456794,0)" xlink:href="#al"/><use transform="matrix(0.04691358024691358,0,0,0.04691358024691358,24.348148148148148,0)" xlink:href="#aL"/><use transform="matrix(0.04691358024691358,0,0,0.04691358024691358,33.73086419753087,0)" xlink:href="#ah"/><use transform="matrix(0.04691358024691358,0,0,0.04691358024691358,43.113580246913585,0)" xlink:href="#ar"/><use transform="matrix(0.04691358024691358,0,0,0.04691358024691358,48.696296296296296,0)" xlink:href="#aO"/><use transform="matrix(0.04691358024691358,0,0,0.04691358024691358,51.886419753086436,0)" xlink:href="#ak"/></g><g id="v"><use transform="matrix(0.04691358024691358,0,0,0.04691358024691358,0,0)" xlink:href="#aC"/><use transform="matrix(0.04691358024691358,0,0,0.04691358024691358,9.382716049382717,0)" xlink:href="#az"/><use transform="matrix(0.04691358024691358,0,0,0.04691358024691358,18.765432098765434,0)" xlink:href="#aA"/><use transform="matrix(0.04691358024691358,0,0,0.04691358024691358,32.7925925925926,0)" xlink:href="#ah"/></g><g id="w"><use transform="matrix(0.04691358024691358,0,0,0.04691358024691358,0,0)" xlink:href="#aM"/><use transform="matrix(0.04691358024691358,0,0,0.04691358024691358,14.02716049382716,0)" xlink:href="#as"/><use transform="matrix(0.04691358024691358,0,0,0.04691358024691358,23.409876543209876,0)" xlink:href="#al"/><use transform="matrix(0.04691358024691358,0,0,0.04691358024691358,28.10123456790123,0)" xlink:href="#aL"/><use transform="matrix(0.04691358024691358,0,0,0.04691358024691358,37.48395061728395,0)" xlink:href="#ah"/><use transform="matrix(0.04691358024691358,0,0,0.04691358024691358,46.86666666666667,0)" xlink:href="#ar"/><use transform="matrix(0.04691358024691358,0,0,0.04691358024691358,52.449382716049385,0)" xlink:href="#aO"/><use transform="matrix(0.04691358024691358,0,0,0.04691358024691358,55.63950617283951,0)" xlink:href="#ak"/></g><g id="x"><use transform="matrix(0.04691358024691358,0,0,0.04691358024691358,0,0)" xlink:href="#aq"/><use transform="matrix(0.04691358024691358,0,0,0.04691358024691358,11.25925925925926,0)" xlink:href="#aL"/><use transform="matrix(0.04691358024691358,0,0,0.04691358024691358,20.641975308641975,0)" xlink:href="#as"/><use transform="matrix(0.04691358024691358,0,0,0.04691358024691358,30.024691358024686,0)" xlink:href="#aC"/><use transform="matrix(0.04691358024691358,0,0,0.04691358024691358,39.407407407407405,0)" xlink:href="#ah"/></g><path d="M115-194c53 0 69 39 70 98 0 66-23 100-70 100C84 3 66-7 56-30L54 0H23l1-261h32v101c10-23 28-34 59-34zm-8 174c40 0 45-34 45-75 0-40-5-75-45-74-42 0-51 32-51 76 0 43 10 73 51 73" id="aP"/><g id="y"><use transform="matrix(0.04691358024691358,0,0,0.04691358024691358,0,0)" xlink:href="#aC"/><use transform="matrix(0.04691358024691358,0,0,0.04691358024691358,9.382716049382717,0)" xlink:href="#aj"/><use transform="matrix(0.04691358024691358,0,0,0.04691358024691358,18.765432098765434,0)" xlink:href="#aA"/><use transform="matrix(0.04691358024691358,0,0,0.04691358024691358,32.7925925925926,0)" xlink:href="#aP"/><use transform="matrix(0.04691358024691358,0,0,0.04691358024691358,42.17530864197531,0)" xlink:href="#ah"/><use transform="matrix(0.04691358024691358,0,0,0.04691358024691358,51.55802469135803,0)" xlink:href="#ar"/></g><path d="M108 0H70L1-190h34L89-25l56-165h34" id="aQ"/><g id="z"><use transform="matrix(0.04691358024691358,0,0,0.04691358024691358,0,0)" xlink:href="#aH"/><use transform="matrix(0.04691358024691358,0,0,0.04691358024691358,11.25925925925926,0)" xlink:href="#av"/><use transform="matrix(0.04691358024691358,0,0,0.04691358024691358,14.965432098765433,0)" xlink:href="#al"/><use transform="matrix(0.04691358024691358,0,0,0.04691358024691358,19.65679012345679,0)" xlink:href="#ah"/><use transform="matrix(0.04691358024691358,0,0,0.04691358024691358,29.03950617283951,0)" xlink:href="#ar"/><use transform="matrix(0.04691358024691358,0,0,0.04691358024691358,34.62222222222223,0)" xlink:href="#aC"/><use transform="matrix(0.04691358024691358,0,0,0.04691358024691358,44.00493827160494,0)" xlink:href="#az"/><use transform="matrix(0.04691358024691358,0,0,0.04691358024691358,53.38765432098766,0)" xlink:href="#al"/><use transform="matrix(0.04691358024691358,0,0,0.04691358024691358,58.07901234567902,0)" xlink:href="#au"/><use transform="matrix(0.04691358024691358,0,0,0.04691358024691358,61.78518518518519,0)" xlink:href="#aQ"/><use transform="matrix(0.04691358024691358,0,0,0.04691358024691358,70.22962962962964,0)" xlink:href="#ah"/></g><path d="M266 0h-40l-56-210L115 0H75L2-248h35L96-30l15-64 43-154h32l59 218 59-218h35" id="aR"/><path d="M177-190C167-65 218 103 67 71c-23-6-38-20-44-43l32-5c15 47 100 32 89-28v-30C133-14 115 1 83 1 29 1 15-40 15-95c0-56 16-97 71-98 29-1 48 16 59 35 1-10 0-23 2-32h30zM94-22c36 0 50-32 50-73 0-42-14-75-50-75-39 0-46 34-46 75s6 73 46 73" id="aS"/><g id="A"><use transform="matrix(0.04691358024691358,0,0,0.04691358024691358,0,0)" xlink:href="#aR"/><use transform="matrix(0.04691358024691358,0,0,0.04691358024691358,15.57530864197531,0)" xlink:href="#ah"/><use transform="matrix(0.04691358024691358,0,0,0.04691358024691358,24.958024691358027,0)" xlink:href="#aP"/><use transform="matrix(0.04691358024691358,0,0,0.04691358024691358,34.34074074074074,0)" xlink:href="#aw"/><use transform="matrix(0.04691358024691358,0,0,0.04691358024691358,43.72345679012346,0)" xlink:href="#az"/><use transform="matrix(0.04691358024691358,0,0,0.04691358024691358,53.10617283950618,0)" xlink:href="#aS"/><use transform="matrix(0.04691358024691358,0,0,0.04691358024691358,62.48888888888888,0)" xlink:href="#ah"/></g><path d="M67-125c0 53 21 87 73 88 37 1 54-22 65-47l45 17C233-25 199 4 140 4 58 4 20-42 15-125 8-235 124-281 211-232c18 10 29 29 36 50l-46 12c-8-25-30-41-62-41-52 0-71 34-72 86" id="aT"/><path d="M114-157C55-157 80-60 75 0H25v-261h50l-1 109c12-26 28-41 61-42 86-1 58 113 63 194h-50c-7-57 23-157-34-157" id="aU"/><path d="M133-34C117-15 103 5 69 4 32 3 11-16 11-54c-1-60 55-63 116-61 1-26-3-47-28-47-18 1-26 9-28 27l-52-2c7-38 36-58 82-57s74 22 75 68l1 82c-1 14 12 18 25 15v27c-30 8-71 5-69-32zm-48 3c29 0 43-24 42-57-32 0-66-3-65 30 0 17 8 27 23 27" id="aV"/><path d="M135-194c87-1 58 113 63 194h-50c-7-57 23-157-34-157-59 0-34 97-39 157H25l-1-190h47c2 12-1 28 3 38 12-26 28-41 61-42" id="aW"/><path d="M195-6C206 82 75 100 31 46c-4-6-6-13-8-21l49-6c3 16 16 24 34 25 40 0 42-37 40-79-11 22-30 35-61 35-53 0-70-43-70-97 0-56 18-96 73-97 30 0 46 14 59 34l2-30h47zm-90-29c32 0 41-27 41-63 0-35-9-62-40-62-32 0-39 29-40 63 0 36 9 62 39 62" id="aX"/><g id="B"><use transform="matrix(0.05,0,0,0.05,0,0)" xlink:href="#aT"/><use transform="matrix(0.05,0,0,0.05,12.950000000000001,0)" xlink:href="#aU"/><use transform="matrix(0.05,0,0,0.05,23.900000000000002,0)" xlink:href="#aV"/><use transform="matrix(0.05,0,0,0.05,33.900000000000006,0)" xlink:href="#aW"/><use transform="matrix(0.05,0,0,0.05,44.85000000000001,0)" xlink:href="#aX"/><use transform="matrix(0.05,0,0,0.05,55.80000000000001,0)" xlink:href="#ao"/></g><path fill="#333" d="M212-179c-10-28-35-45-73-45-59 0-87 40-87 99 0 60 29 101 89 101 43 0 62-24 78-52l27 14C228-24 195 4 139 4 59 4 22-46 18-125c-6-104 99-153 187-111 19 9 31 26 39 46" id="aY"/><path fill="#333" d="M106-169C34-169 62-67 57 0H25v-261h32l-1 103c12-21 28-36 61-36 89 0 53 116 60 194h-32v-121c2-32-8-49-39-48" id="aZ"/><path fill="#333" d="M141-36C126-15 110 5 73 4 37 3 15-17 15-53c-1-64 63-63 125-63 3-35-9-54-41-54-24 1-41 7-42 31l-33-3c5-37 33-52 76-52 45 0 72 20 72 64v82c-1 20 7 32 28 27v20c-31 9-61-2-59-35zM48-53c0 20 12 33 32 33 41-3 63-29 60-74-43 2-92-5-92 41" id="ba"/><path fill="#333" d="M117-194c89-4 53 116 60 194h-32v-121c0-31-8-49-39-48C34-167 62-67 57 0H25l-1-190h30c1 10-1 24 2 32 11-22 29-35 61-36" id="bb"/><path fill="#333" d="M177-190C167-65 218 103 67 71c-23-6-38-20-44-43l32-5c15 47 100 32 89-28v-30C133-14 115 1 83 1 29 1 15-40 15-95c0-56 16-97 71-98 29-1 48 16 59 35 1-10 0-23 2-32h30zM94-22c36 0 50-32 50-73 0-42-14-75-50-75-39 0-46 34-46 75s6 73 46 73" id="bc"/><path fill="#333" d="M100-194c63 0 86 42 84 106H49c0 40 14 67 53 68 26 1 43-12 49-29l28 8c-11 28-37 45-77 45C44 4 14-33 15-96c1-61 26-98 85-98zm52 81c6-60-76-77-97-28-3 7-6 17-6 28h103" id="bd"/><path fill="#333" d="M85-194c31 0 48 13 60 33l-1-100h32l1 261h-30c-2-10 0-23-3-31C134-8 116 4 85 4 32 4 16-35 15-94c0-66 23-100 70-100zm9 24c-40 0-46 34-46 75 0 40 6 74 45 74 42 0 51-32 51-76 0-42-9-74-50-73" id="be"/><g id="C"><use transform="matrix(0.05,0,0,0.05,0,0)" xlink:href="#aY"/><use transform="matrix(0.05,0,0,0.05,12.950000000000001,0)" xlink:href="#aZ"/><use transform="matrix(0.05,0,0,0.05,22.950000000000003,0)" xlink:href="#ba"/><use transform="matrix(0.05,0,0,0.05,32.95,0)" xlink:href="#bb"/><use transform="matrix(0.05,0,0,0.05,42.95,0)" xlink:href="#bc"/><use transform="matrix(0.05,0,0,0.05,52.95,0)" xlink:href="#bd"/><use transform="matrix(0.05,0,0,0.05,62.95,0)" xlink:href="#be"/></g><path fill="#333" d="M59-47c-2 24 18 29 38 22v24C64 9 27 4 27-40v-127H5v-23h24l9-43h21v43h35v23H59v120" id="bf"/><path fill="#333" d="M114-163C36-179 61-72 57 0H25l-1-190h30c1 12-1 29 2 39 6-27 23-49 58-41v29" id="bg"/><path fill="#333" d="M24-231v-30h32v30H24zM24 0v-190h32V0H24" id="bh"/><path fill="#333" d="M115-194c53 0 69 39 70 98 0 66-23 100-70 100C84 3 66-7 56-30L54 0H23l1-261h32v101c10-23 28-34 59-34zm-8 174c40 0 45-34 45-75 0-40-5-75-45-74-42 0-51 32-51 76 0 43 10 73 51 73" id="bi"/><path fill="#333" d="M84 4C-5 8 30-112 23-190h32v120c0 31 7 50 39 49 72-2 45-101 50-169h31l1 190h-30c-1-10 1-25-2-33-11 22-28 36-60 37" id="bj"/><g id="D"><use transform="matrix(0.05,0,0,0.05,0,0)" xlink:href="#ba"/><use transform="matrix(0.05,0,0,0.05,10,0)" xlink:href="#bf"/><use transform="matrix(0.05,0,0,0.05,15,0)" xlink:href="#bf"/><use transform="matrix(0.05,0,0,0.05,20,0)" xlink:href="#bg"/><use transform="matrix(0.05,0,0,0.05,25.950000000000003,0)" xlink:href="#bh"/><use transform="matrix(0.05,0,0,0.05,29.899999999999995,0)" xlink:href="#bi"/><use transform="matrix(0.05,0,0,0.05,39.9,0)" xlink:href="#bj"/><use transform="matrix(0.05,0,0,0.05,49.9,0)" xlink:href="#bf"/><use transform="matrix(0.05,0,0,0.05,54.900000000000006,0)" xlink:href="#bd"/></g><path fill="#333" d="M140-251c81 0 123 46 123 126C263-46 219 4 140 4 59 4 17-45 17-125s42-126 123-126zm0 227c63 0 89-41 89-101s-29-99-89-99c-61 0-89 39-89 99S79-25 140-24" id="bk"/><path fill="#333" d="M24 0v-261h32V0H24" id="bl"/><g id="E"><use transform="matrix(0.05,0,0,0.05,0,0)" xlink:href="#bk"/><use transform="matrix(0.05,0,0,0.05,14,0)" xlink:href="#bl"/><use transform="matrix(0.05,0,0,0.05,17.95,0)" xlink:href="#be"/></g><path fill="#333" d="M108 0H70L1-190h34L89-25l56-165h34" id="bm"/><g id="F"><use transform="matrix(0.05,0,0,0.05,0,0)" xlink:href="#bm"/><use transform="matrix(0.05,0,0,0.05,9,0)" xlink:href="#ba"/><use transform="matrix(0.05,0,0,0.05,19,0)" xlink:href="#bl"/><use transform="matrix(0.05,0,0,0.05,22.95,0)" xlink:href="#bj"/><use transform="matrix(0.05,0,0,0.05,32.95,0)" xlink:href="#bd"/></g><path fill="#333" d="M190 0L58-211 59 0H30v-248h39L202-35l-2-213h31V0h-41" id="bn"/><path fill="#333" d="M206 0h-36l-40-164L89 0H53L-1-190h32L70-26l43-164h34l41 164 42-164h31" id="bo"/><g id="G"><use transform="matrix(0.05,0,0,0.05,0,0)" xlink:href="#bn"/><use transform="matrix(0.05,0,0,0.05,12.950000000000001,0)" xlink:href="#bd"/><use transform="matrix(0.05,0,0,0.05,22.950000000000003,0)" xlink:href="#bo"/></g><g id="H"><use transform="matrix(0.05,0,0,0.05,0,0)" xlink:href="#bm"/><use transform="matrix(0.05,0,0,0.05,9,0)" xlink:href="#ba"/><use transform="matrix(0.05,0,0,0.05,19,0)" xlink:href="#bl"/><use transform="matrix(0.05,0,0,0.05,22.95,0)" xlink:href="#bj"/><use transform="matrix(0.05,0,0,0.05,32.95,0)" xlink:href="#bd"/></g><path d="M230 0l2-204L168 0h-37L68-204 70 0H24v-248h70l56 185 57-185h69V0h-46" id="bp"/><path d="M85 4C-2 5 27-109 22-190h50c7 57-23 150 33 157 60-5 35-97 40-157h50l1 190h-47c-2-12 1-28-3-38-12 25-28 42-61 42" id="bq"/><path d="M25 0v-261h50V0H25" id="br"/><path d="M115-3C79 11 28 4 28-45v-112H4v-33h27l15-45h31v45h36v33H77v99c-1 23 16 31 38 25v30" id="bs"/><path d="M25-224v-37h50v37H25zM25 0v-190h50V0H25" id="bt"/><path d="M135-194c53 0 70 44 70 98 0 56-19 98-73 100-31 1-45-17-59-34 3 33 2 69 2 105H25l-1-265h48c2 10 0 23 3 31 11-24 29-35 60-35zM114-30c33 0 39-31 40-66 0-38-9-64-40-64-56 0-55 130 0 130" id="bu"/><path d="M110-194c64 0 96 36 96 99 0 64-35 99-97 99-61 0-95-36-95-99 0-62 34-99 96-99zm-1 164c35 0 45-28 45-65 0-40-10-65-43-65-34 0-45 26-45 65 0 36 10 65 43 65" id="bv"/><g id="I"><use transform="matrix(0.05,0,0,0.05,0,0)" xlink:href="#bp"/><use transform="matrix(0.05,0,0,0.05,14.950000000000001,0)" xlink:href="#bq"/><use transform="matrix(0.05,0,0,0.05,25.900000000000002,0)" xlink:href="#br"/><use transform="matrix(0.05,0,0,0.05,30.900000000000002,0)" xlink:href="#bs"/><use transform="matrix(0.05,0,0,0.05,36.85,0)" xlink:href="#bt"/><use transform="matrix(0.05,0,0,0.05,41.85,0)" xlink:href="#bu"/><use transform="matrix(0.05,0,0,0.05,52.800000000000004,0)" xlink:href="#bq"/><use transform="matrix(0.05,0,0,0.05,63.75,0)" xlink:href="#ap"/><use transform="matrix(0.05,0,0,0.05,70.75,0)" xlink:href="#bu"/><use transform="matrix(0.05,0,0,0.05,81.7,0)" xlink:href="#bv"/><use transform="matrix(0.05,0,0,0.05,92.65,0)" xlink:href="#an"/><use transform="matrix(0.05,0,0,0.05,102.65,0)" xlink:href="#ao"/></g><path d="M24-248c120-7 223 5 221 122C244-46 201 0 124 0H24v-248zM76-40c74 7 117-18 117-86 0-67-45-88-117-82v168" id="bw"/><path d="M190-63c-7 42-38 67-86 67-59 0-84-38-90-98-12-110 154-137 174-36l-49 2c-2-19-15-32-35-32-30 0-35 28-38 64-6 74 65 87 74 30" id="bx"/><g id="J"><use transform="matrix(0.05,0,0,0.05,0,0)" xlink:href="#bw"/><use transform="matrix(0.05,0,0,0.05,12.950000000000001,0)" xlink:href="#ao"/><use transform="matrix(0.05,0,0,0.05,22.950000000000003,0)" xlink:href="#bx"/><use transform="matrix(0.05,0,0,0.05,32.95,0)" xlink:href="#br"/><use transform="matrix(0.05,0,0,0.05,37.95,0)" xlink:href="#aV"/><use transform="matrix(0.05,0,0,0.05,47.95,0)" xlink:href="#ap"/><use transform="matrix(0.05,0,0,0.05,54.95,0)" xlink:href="#aV"/><use transform="matrix(0.05,0,0,0.05,64.95,0)" xlink:href="#bs"/><use transform="matrix(0.05,0,0,0.05,70.9,0)" xlink:href="#bt"/><use transform="matrix(0.05,0,0,0.05,75.9,0)" xlink:href="#bv"/><use transform="matrix(0.05,0,0,0.05,86.85000000000001,0)" xlink:href="#aW"/></g><path fill="#333" d="M63-220v92h138v28H63V0H30v-248h175v28H63" id="by"/><g id="K"><use transform="matrix(0.05,0,0,0.05,0,0)" xlink:href="#by"/><use transform="matrix(0.05,0,0,0.05,10.950000000000001,0)" xlink:href="#bh"/><use transform="matrix(0.05,0,0,0.05,14.9,0)" xlink:href="#bl"/><use transform="matrix(0.05,0,0,0.05,18.85,0)" xlink:href="#bd"/></g><path d="M27 0v-27h64v-190l-56 39v-29l58-41h29v221h61V0H27" id="bz"/><use transform="matrix(0.05,0,0,0.05,0,0)" xlink:href="#bz" id="L"/><path d="M80-196l47-18 7 23-49 13 32 44-20 13-27-46-27 45-21-12 33-44-49-13 8-23 47 19-2-53h23" id="bA"/><use transform="matrix(0.05,0,0,0.05,0,0)" xlink:href="#bA" id="M"/><path d="M169-182c-1-43-94-46-97-3 18 66 151 10 154 114 3 95-165 93-204 36-6-8-10-19-12-30l50-8c3 46 112 56 116 5-17-69-150-10-154-114-4-87 153-88 188-35 5 8 8 18 10 28" id="bB"/><g id="N"><use transform="matrix(0.05,0,0,0.05,0,0)" xlink:href="#bB"/><use transform="matrix(0.05,0,0,0.05,12,0)" xlink:href="#bs"/><use transform="matrix(0.05,0,0,0.05,17.95,0)" xlink:href="#aV"/><use transform="matrix(0.05,0,0,0.05,27.950000000000003,0)" xlink:href="#bs"/><use transform="matrix(0.05,0,0,0.05,33.9,0)" xlink:href="#bq"/><use transform="matrix(0.05,0,0,0.05,44.85,0)" xlink:href="#an"/></g><path fill="#333" d="M185-189c-5-48-123-54-124 2 14 75 158 14 163 119 3 78-121 87-175 55-17-10-28-26-33-46l33-7c5 56 141 63 141-1 0-78-155-14-162-118-5-82 145-84 179-34 5 7 8 16 11 25" id="bC"/><path fill="#333" d="M135-143c-3-34-86-38-87 0 15 53 115 12 119 90S17 21 10-45l28-5c4 36 97 45 98 0-10-56-113-15-118-90-4-57 82-63 122-42 12 7 21 19 24 35" id="bD"/><g id="O"><use transform="matrix(0.05,0,0,0.05,0,0)" xlink:href="#bC"/><use transform="matrix(0.05,0,0,0.05,12,0)" xlink:href="#bf"/><use transform="matrix(0.05,0,0,0.05,17,0)" xlink:href="#ba"/><use transform="matrix(0.05,0,0,0.05,27,0)" xlink:href="#bf"/><use transform="matrix(0.05,0,0,0.05,32,0)" xlink:href="#bj"/><use transform="matrix(0.05,0,0,0.05,42,0)" xlink:href="#bD"/></g><g id="P"><use transform="matrix(0.05,0,0,0.05,0,0)" xlink:href="#bw"/><use transform="matrix(0.05,0,0,0.05,12.950000000000001,0)" xlink:href="#aV"/><use transform="matrix(0.05,0,0,0.05,22.950000000000003,0)" xlink:href="#bs"/><use transform="matrix(0.05,0,0,0.05,28.900000000000002,0)" xlink:href="#ao"/></g><path d="M240-174c0 40-23 61-54 70L253 0h-59l-57-94H76V0H24v-248c93 4 217-23 216 74zM76-134c48-2 112 12 112-38 0-48-66-32-112-35v73" id="bE"/><path d="M88-194c31-1 46 15 58 34l-1-101h50l1 261h-48c-2-10 0-23-3-31C134-8 116 4 84 4 32 4 16-41 15-95c0-56 19-97 73-99zm17 164c33 0 40-30 41-66 1-37-9-64-41-64s-38 30-39 65c0 43 13 65 39 65" id="bF"/><g id="Q"><use transform="matrix(0.05,0,0,0.05,0,0)" xlink:href="#bE"/><use transform="matrix(0.05,0,0,0.05,12.950000000000001,0)" xlink:href="#ao"/><use transform="matrix(0.05,0,0,0.05,22.950000000000003,0)" xlink:href="#aX"/><use transform="matrix(0.05,0,0,0.05,33.900000000000006,0)" xlink:href="#bt"/><use transform="matrix(0.05,0,0,0.05,38.900000000000006,0)" xlink:href="#an"/><use transform="matrix(0.05,0,0,0.05,48.900000000000006,0)" xlink:href="#bs"/><use transform="matrix(0.05,0,0,0.05,54.85,0)" xlink:href="#ao"/><use transform="matrix(0.05,0,0,0.05,64.85000000000001,0)" xlink:href="#ap"/><use transform="matrix(0.05,0,0,0.05,71.85000000000001,0)" xlink:href="#ao"/><use transform="matrix(0.05,0,0,0.05,81.85000000000001,0)" xlink:href="#bF"/></g><path fill="#333" d="M30-248c118-7 216 8 213 122C240-48 200 0 122 0H30v-248zM63-27c89 8 146-16 146-99s-60-101-146-95v194" id="bG"/><g id="R"><use transform="matrix(0.05,0,0,0.05,0,0)" xlink:href="#bG"/><use transform="matrix(0.05,0,0,0.05,12.950000000000001,0)" xlink:href="#ba"/><use transform="matrix(0.05,0,0,0.05,22.950000000000003,0)" xlink:href="#bf"/><use transform="matrix(0.05,0,0,0.05,27.950000000000003,0)" xlink:href="#bd"/></g><path d="M175 0L67-191c6 58 2 128 3 191H24v-248h59L193-55c-6-58-2-129-3-193h46V0h-61" id="bH"/><path d="M123 10C108 53 80 86 19 72V37c35 8 53-11 59-39L3-190h52l48 148c12-52 28-100 44-148h51" id="bI"/><g id="S"><use transform="matrix(0.05,0,0,0.05,0,0)" xlink:href="#bH"/><use transform="matrix(0.05,0,0,0.05,12.950000000000001,0)" xlink:href="#aV"/><use transform="matrix(0.05,0,0,0.05,22.950000000000003,0)" xlink:href="#bx"/><use transform="matrix(0.05,0,0,0.05,32.95,0)" xlink:href="#bt"/><use transform="matrix(0.05,0,0,0.05,37.95,0)" xlink:href="#bv"/><use transform="matrix(0.05,0,0,0.05,48.900000000000006,0)" xlink:href="#aW"/><use transform="matrix(0.05,0,0,0.05,59.85,0)" xlink:href="#aV"/><use transform="matrix(0.05,0,0,0.05,69.85000000000001,0)" xlink:href="#br"/><use transform="matrix(0.05,0,0,0.05,74.85000000000001,0)" xlink:href="#bt"/><use transform="matrix(0.05,0,0,0.05,79.85000000000001,0)" xlink:href="#bs"/><use transform="matrix(0.05,0,0,0.05,85.80000000000001,0)" xlink:href="#bI"/></g><path fill="#333" d="M96-169c-40 0-48 33-48 73s9 75 48 75c24 0 41-14 43-38l32 2c-6 37-31 61-74 61-59 0-76-41-82-99-10-93 101-131 147-64 4 7 5 14 7 22l-32 3c-4-21-16-35-41-35" id="bJ"/><path fill="#333" d="M100-194c62-1 85 37 85 99 1 63-27 99-86 99S16-35 15-95c0-66 28-99 85-99zM99-20c44 1 53-31 53-75 0-43-8-75-51-75s-53 32-53 75 10 74 51 75" id="bK"/><path fill="#333" d="M179-190L93 31C79 59 56 82 12 73V49c39 6 53-20 64-50L1-190h34L92-34l54-156h33" id="bL"/><g id="T"><use transform="matrix(0.05,0,0,0.05,0,0)" xlink:href="#bn"/><use transform="matrix(0.05,0,0,0.05,12.950000000000001,0)" xlink:href="#ba"/><use transform="matrix(0.05,0,0,0.05,22.950000000000003,0)" xlink:href="#bJ"/><use transform="matrix(0.05,0,0,0.05,31.950000000000003,0)" xlink:href="#bh"/><use transform="matrix(0.05,0,0,0.05,35.900000000000006,0)" xlink:href="#bK"/><use transform="matrix(0.05,0,0,0.05,45.900000000000006,0)" xlink:href="#bb"/><use transform="matrix(0.05,0,0,0.05,55.900000000000006,0)" xlink:href="#ba"/><use transform="matrix(0.05,0,0,0.05,65.9,0)" xlink:href="#bl"/><use transform="matrix(0.05,0,0,0.05,69.85000000000001,0)" xlink:href="#bh"/><use transform="matrix(0.05,0,0,0.05,73.80000000000001,0)" xlink:href="#bf"/><use transform="matrix(0.05,0,0,0.05,78.80000000000001,0)" xlink:href="#bL"/></g><path d="M33 0v-38h34V0H33" id="bM"/><g id="U"><use transform="matrix(0.05,0,0,0.05,0,0)" xlink:href="#bz"/><use transform="matrix(0.05,0,0,0.05,10,0)" xlink:href="#bM"/><use transform="matrix(0.05,0,0,0.05,15,0)" xlink:href="#bM"/><use transform="matrix(0.05,0,0,0.05,20,0)" xlink:href="#bA"/></g><path d="M199 0l-22-63H83L61 0H9l90-248h61L250 0h-51zm-33-102l-36-108c-10 38-24 72-36 108h72" id="bN"/><g id="V"><use transform="matrix(0.05,0,0,0.05,0,0)" xlink:href="#bN"/><use transform="matrix(0.05,0,0,0.05,12.950000000000001,0)" xlink:href="#bF"/><use transform="matrix(0.05,0,0,0.05,23.900000000000002,0)" xlink:href="#bF"/><use transform="matrix(0.05,0,0,0.05,34.85,0)" xlink:href="#ap"/><use transform="matrix(0.05,0,0,0.05,41.85,0)" xlink:href="#ao"/><use transform="matrix(0.05,0,0,0.05,51.85,0)" xlink:href="#an"/><use transform="matrix(0.05,0,0,0.05,61.85,0)" xlink:href="#an"/></g><path fill="#333" d="M127-220V0H93v-220H8v-28h204v28h-85" id="bO"/><path fill="#333" d="M115-194c55 1 70 41 70 98S169 2 115 4C84 4 66-9 55-30l1 105H24l-1-265h31l2 30c10-21 28-34 59-34zm-8 174c40 0 45-34 45-75s-6-73-45-74c-42 0-51 32-51 76 0 43 10 73 51 73" id="bP"/><g id="W"><use transform="matrix(0.05,0,0,0.05,0,0)" xlink:href="#bO"/><use transform="matrix(0.05,0,0,0.05,9.950000000000001,0)" xlink:href="#bL"/><use transform="matrix(0.05,0,0,0.05,18.950000000000003,0)" xlink:href="#bP"/><use transform="matrix(0.05,0,0,0.05,28.950000000000003,0)" xlink:href="#bd"/></g><g id="X"><use transform="matrix(0.05,0,0,0.05,0,0)" xlink:href="#aY"/><use transform="matrix(0.05,0,0,0.05,12.950000000000001,0)" xlink:href="#bK"/><use transform="matrix(0.05,0,0,0.05,22.950000000000003,0)" xlink:href="#bj"/><use transform="matrix(0.05,0,0,0.05,32.95,0)" xlink:href="#bb"/><use transform="matrix(0.05,0,0,0.05,42.95,0)" xlink:href="#bf"/><use transform="matrix(0.05,0,0,0.05,47.95,0)" xlink:href="#bg"/><use transform="matrix(0.05,0,0,0.05,53.900000000000006,0)" xlink:href="#bL"/></g><g id="Y"><use transform="matrix(0.05,0,0,0.05,0,0)" xlink:href="#bG"/><use transform="matrix(0.05,0,0,0.05,12.950000000000001,0)" xlink:href="#bh"/><use transform="matrix(0.05,0,0,0.05,16.900000000000002,0)" xlink:href="#bD"/><use transform="matrix(0.05,0,0,0.05,25.900000000000002,0)" xlink:href="#bf"/><use transform="matrix(0.05,0,0,0.05,30.900000000000002,0)" xlink:href="#bg"/><use transform="matrix(0.05,0,0,0.05,36.85,0)" xlink:href="#bh"/><use transform="matrix(0.05,0,0,0.05,40.800000000000004,0)" xlink:href="#bJ"/><use transform="matrix(0.05,0,0,0.05,49.800000000000004,0)" xlink:href="#bf"/></g><g id="Z"><use transform="matrix(0.05,0,0,0.05,0,0)" xlink:href="#aY"/><use transform="matrix(0.05,0,0,0.05,12.950000000000001,0)" xlink:href="#bh"/><use transform="matrix(0.05,0,0,0.05,16.900000000000002,0)" xlink:href="#bf"/><use transform="matrix(0.05,0,0,0.05,21.900000000000002,0)" xlink:href="#bL"/></g><g id="aa"><use transform="matrix(0.05,0,0,0.05,0,0)" xlink:href="#bC"/><use transform="matrix(0.05,0,0,0.05,12,0)" xlink:href="#bf"/><use transform="matrix(0.05,0,0,0.05,17,0)" xlink:href="#bg"/><use transform="matrix(0.05,0,0,0.05,22.95,0)" xlink:href="#bd"/><use transform="matrix(0.05,0,0,0.05,32.95,0)" xlink:href="#bd"/><use transform="matrix(0.05,0,0,0.05,42.95,0)" xlink:href="#bf"/></g><path fill="#333" d="M210-169c-67 3-38 105-44 169h-31v-121c0-29-5-50-35-48C34-165 62-65 56 0H25l-1-190h30c1 10-1 24 2 32 10-44 99-50 107 0 11-21 27-35 58-36 85-2 47 119 55 194h-31v-121c0-29-5-49-35-48" id="bQ"/><g id="ab"><use transform="matrix(0.05,0,0,0.05,0,0)" xlink:href="#bn"/><use transform="matrix(0.05,0,0,0.05,12.950000000000001,0)" xlink:href="#bj"/><use transform="matrix(0.05,0,0,0.05,22.950000000000003,0)" xlink:href="#bQ"/><use transform="matrix(0.05,0,0,0.05,37.900000000000006,0)" xlink:href="#bi"/><use transform="matrix(0.05,0,0,0.05,47.900000000000006,0)" xlink:href="#bd"/><use transform="matrix(0.05,0,0,0.05,57.900000000000006,0)" xlink:href="#bg"/></g><path d="M101-251c82-7 93 87 43 132L82-64C71-53 59-42 53-27h129V0H18c2-99 128-94 128-182 0-28-16-43-45-43s-46 15-49 41l-32-3c6-41 34-60 81-64" id="bR"/><g id="ac"><use transform="matrix(0.05,0,0,0.05,0,0)" xlink:href="#bz"/><use transform="matrix(0.05,0,0,0.05,10,0)" xlink:href="#bM"/><use transform="matrix(0.05,0,0,0.05,15,0)" xlink:href="#bM"/><use transform="matrix(0.05,0,0,0.05,20,0)" xlink:href="#bR"/></g><path d="M24 0v-248h52V0H24" id="bS"/><path d="M121-226c-27-7-43 5-38 36h38v33H83V0H34v-157H6v-33h28c-9-59 32-81 87-68v32" id="bT"/><g id="ad"><use transform="matrix(0.05,0,0,0.05,0,0)" xlink:href="#bS"/><use transform="matrix(0.05,0,0,0.05,5,0)" xlink:href="#bF"/><use transform="matrix(0.05,0,0,0.05,15.950000000000001,0)" xlink:href="#ao"/><use transform="matrix(0.05,0,0,0.05,25.950000000000003,0)" xlink:href="#aW"/><use transform="matrix(0.05,0,0,0.05,36.900000000000006,0)" xlink:href="#bs"/><use transform="matrix(0.05,0,0,0.05,42.85000000000001,0)" xlink:href="#bt"/><use transform="matrix(0.05,0,0,0.05,47.85000000000001,0)" xlink:href="#bT"/><use transform="matrix(0.05,0,0,0.05,53.80000000000001,0)" xlink:href="#bt"/><use transform="matrix(0.05,0,0,0.05,58.80000000000001,0)" xlink:href="#bx"/><use transform="matrix(0.05,0,0,0.05,68.80000000000001,0)" xlink:href="#aV"/><use transform="matrix(0.05,0,0,0.05,78.80000000000001,0)" xlink:href="#bs"/><use transform="matrix(0.05,0,0,0.05,84.75000000000001,0)" xlink:href="#bt"/><use transform="matrix(0.05,0,0,0.05,89.75000000000001,0)" xlink:href="#bv"/><use transform="matrix(0.05,0,0,0.05,100.70000000000002,0)" xlink:href="#aW"/></g><path d="M220-157c-53 9-28 100-34 157h-49v-107c1-27-5-49-29-50C55-147 81-57 75 0H25l-1-190h47c2 12-1 28 3 38 10-53 101-56 108 0 13-22 24-43 59-42 82 1 51 116 57 194h-49v-107c-1-25-5-48-29-50" id="bU"/><g id="ae"><use transform="matrix(0.05,0,0,0.05,0,0)" xlink:href="#bw"/><use transform="matrix(0.05,0,0,0.05,12.950000000000001,0)" xlink:href="#bv"/><use transform="matrix(0.05,0,0,0.05,23.900000000000002,0)" xlink:href="#bx"/><use transform="matrix(0.05,0,0,0.05,33.900000000000006,0)" xlink:href="#bq"/><use transform="matrix(0.05,0,0,0.05,44.85000000000001,0)" xlink:href="#bU"/><use transform="matrix(0.05,0,0,0.05,60.85,0)" xlink:href="#ao"/><use transform="matrix(0.05,0,0,0.05,70.85000000000001,0)" xlink:href="#aW"/><use transform="matrix(0.05,0,0,0.05,81.80000000000001,0)" xlink:href="#bs"/></g><path fill="#333" d="M137 0h-34L2-248h35l83 218 83-218h36" id="bV"/><g id="af"><use transform="matrix(0.05,0,0,0.05,0,0)" xlink:href="#bV"/><use transform="matrix(0.05,0,0,0.05,10.65,0)" xlink:href="#ba"/><use transform="matrix(0.05,0,0,0.05,20.65,0)" xlink:href="#bl"/><use transform="matrix(0.05,0,0,0.05,24.599999999999998,0)" xlink:href="#bj"/><use transform="matrix(0.05,0,0,0.05,34.599999999999994,0)" xlink:href="#bd"/></g></defs></g></svg>