<svg xmlns="http://www.w3.org/2000/svg" xmlns:xlink="http://www.w3.org/1999/xlink" xmlns:lucid="lucid" width="781" height="621"><g transform="translate(-99.5 -3679.5)" lucid:page-tab-id=".Q4MUjXso07N"><path d="M0 0h1920v4317.54H0z" fill="#fff"/><path d="M426.2 3758.96c2.1 3.9 7.38 7.04 11.8 7.04h154c4.42 0 8 3.58 8 8v478c0 4.42-3.58 8-8 8H148c-4.42 0-8-3.58-8-8v-504c0-4.42 3.58-8 8-8h260c4.42 0 9.7 3.15 11.8 7.04zM140 3766h290" stroke="#333" fill="#fff"/><use xlink:href="#a" transform="matrix(1,0,0,1,148,3740.0000000000005) translate(69.57499999999999 18.799999999999997)"/><use xlink:href="#b" transform="matrix(1,0,0,1,148,3740.0000000000005) translate(122.475 18.799999999999997)"/><path d="M120 3708c0-4.42 3.58-8 8-8h119c4.42 0 8 3.58 8 8v4.93c0 3.9-2.24 9.3-5 12.07-2.76 2.76-8.17 5-12.07 5H128c-4.42 0-8-3.58-8-8z" fill="#fff"/><path d="M255 3700v20l-10 10H120" stroke="#333" fill="none"/><path d="M120 3708c0-4.42 3.58-8 8-8h724c4.42 0 8 3.58 8 8v564c0 4.42-3.58 8-8 8H128c-4.42 0-8-3.58-8-8z" stroke="#333" fill="none"/><use xlink:href="#c" transform="matrix(1,0,0,1,128,3700) translate(8.274999999999991 22.799999999999997)"/><use xlink:href="#d" transform="matrix(1,0,0,1,128,3700) translate(70.175 22.799999999999997)"/><path d="M756.92 3758.28c1.15 4.26 5.66 7.72 10.08 7.72h65c4.42 0 8 3.58 8 8v478c0 4.42-3.58 8-8 8H628c-4.42 0-8-3.58-8-8v-504c0-4.42 3.58-8 8-8h116c4.42 0 8.93 3.46 10.08 7.72zM620 3766h139" stroke="#333" fill="#fff"/><use xlink:href="#e" transform="matrix(1,0,0,1,628,3740.000000000001) translate(1.3592592592592894 15.71111111111111)"/><use xlink:href="#f" transform="matrix(1,0,0,1,628,3740.000000000001) translate(54.753086419753096 15.71111111111111)"/><path d="M749.5 3878.14c.82 4.34 5.08 7.86 9.5 7.86h43c4.42 0 8 3.58 8 8v78c0 4.42-3.58 8-8 8H658c-4.42 0-8-3.58-8-8v-104c0-4.42 3.58-8 8-8h80c4.42 0 8.68 3.52 9.5 7.86zM650 3886h101" stroke="#333" fill="#fff"/><use xlink:href="#g" transform="matrix(1,0,0,1,658,3860) translate(0.6185185185185205 9.355555555555554)"/><use xlink:href="#h" transform="matrix(1,0,0,1,658,3860) translate(32.431481481481484 9.355555555555554)"/><use xlink:href="#i" transform="matrix(1,0,0,1,658,3860) translate(19.30895061728395 20.288888888888888)"/><path d="M406.38 4058.44c1.45 4.18 6.2 7.56 10.62 7.56h95c4.42 0 8 3.58 8 8v118c0 4.42-3.58 8-8 8H228c-4.42 0-8-3.58-8-8v-144c0-4.42 3.58-8 8-8h164c4.42 0 9.17 3.38 10.62 7.56zM220 4066h189" stroke="#333" fill="#fff"/><use xlink:href="#j" transform="matrix(1,0,0,1,228,4040) translate(12.298148148148144 15.266666666666667)"/><use xlink:href="#k" transform="matrix(1,0,0,1,228,4040) translate(47.46296296296296 15.266666666666667)"/><use xlink:href="#l" transform="matrix(1,0,0,1,228,4040) translate(116.65925925925927 15.266666666666667)"/><path d="M520.77 4119.58l2.67-4.14m2.67-4.14l5.36-8.3m2.67-4.13l5.34-8.28m2.67-4.16l5.35-8.28m2.66-4.14l5.34-8.3m2.67-4.13l5.35-8.3m2.67-4.13l5.33-8.3m2.67-4.13l5.35-8.28m2.67-4.15l5.34-8.27m2.67-4.14l5.35-8.3m2.67-4.14l5.34-8.28m2.66-4.14l5.35-8.3m2.68-4.13l5.34-8.27m2.67-4.15l5.33-8.28m2.68-4.14l5.35-8.3m2.67-4.13l5.34-8.28m2.68-4.14l2.67-4.14" stroke="#333" fill="none"/><path d="M521.2 4119.84l-.7 1.08v-1.53z" stroke="#333" stroke-width=".05" fill="#333"/><path d="M648.2 3940.8l.77-19.97-17.9 8.94" stroke="#333" fill="none"/><path d="M406.38 3838.44c1.45 4.18 6.2 7.56 10.62 7.56h95c4.42 0 8 3.58 8 8v98c0 4.42-3.58 8-8 8H228c-4.42 0-8-3.58-8-8v-124c0-4.42 3.58-8 8-8h164c4.42 0 9.17 3.38 10.62 7.56zM220 3846h189" stroke="#333" fill="#fff"/><use xlink:href="#m" transform="matrix(1,0,0,1,228,3820) translate(21.59444444444445 16.155555555555555)"/><use xlink:href="#n" transform="matrix(1,0,0,1,228,3820) translate(67.96358024691358 16.155555555555555)"/><use xlink:href="#o" transform="matrix(1,0,0,1,228,3820) translate(118.6716049382716 16.155555555555555)"/><path d="M360 3960.5v5.2m0 5.2v10.42m0 5.2v10.42m0 5.2v10.42m0 5.2v10.42m0 5.2v5.2M360 3960.5v-.5M349.82 4021.3l10.18 17.22 10.18-17.22" stroke="#333" fill="none"/><path d="M755.5 4078.14c.82 4.34 5.08 7.86 9.5 7.86h47c4.42 0 8 3.58 8 8v58c0 4.42-3.58 8-8 8H658c-4.42 0-8-3.58-8-8v-84c0-4.42 3.58-8 8-8h86c4.42 0 8.68 3.52 9.5 7.86zM650 4086h107" stroke="#333" fill="#fff"/><g><use xlink:href="#p" transform="matrix(1,0,0,1,658,4060) translate(4.087037037037035 15.266666666666667)"/><use xlink:href="#q" transform="matrix(1,0,0,1,658,4060) translate(34.27777777777778 15.266666666666667)"/></g><path d="M521 4160.04l4.72-.92m4.72-.9l9.46-1.84m4.72-.92l9.46-1.83m4.72-.92l9.46-1.82m4.72-.9l9.46-1.84m4.72-.92l9.46-1.83m4.72-.93l9.46-1.83m4.72-.9l9.45-1.84m4.73-.92l9.45-1.83m4.73-.9l4.73-.93" stroke="#333" fill="none"/><path d="M521.1 4160.53l-.6.1v-1l.4-.1z" stroke="#333" stroke-width=".05" fill="#333"/><path d="M633.57 4148.6l14.97-13.27-18.84-6.72" stroke="#333" fill="none"/><defs><path d="M232-93c-1 65-40 97-104 97C67 4 28-28 28-90v-158h33c8 89-33 224 67 224 102 0 64-133 71-224h33v155" id="r"/><path d="M117-194c89-4 53 116 60 194h-32v-121c0-31-8-49-39-48C34-167 62-67 57 0H25l-1-190h30c1 10-1 24 2 32 11-22 29-35 61-36" id="s"/><path d="M24-231v-30h32v30H24zM24 0v-190h32V0H24" id="t"/><path d="M118-107v75H92v-75H18v-26h74v-75h26v75h74v26h-74" id="u"/><g id="a"><use transform="matrix(0.05,0,0,0.05,0,0)" xlink:href="#r"/><use transform="matrix(0.05,0,0,0.05,12.950000000000001,0)" xlink:href="#s"/><use transform="matrix(0.05,0,0,0.05,22.950000000000003,0)" xlink:href="#t"/><use transform="matrix(0.05,0,0,0.05,26.900000000000002,0)" xlink:href="#u"/><use transform="matrix(0.05,0,0,0.05,37.400000000000006,0)" xlink:href="#u"/></g><path d="M185-189c-5-48-123-54-124 2 14 75 158 14 163 119 3 78-121 87-175 55-17-10-28-26-33-46l33-7c5 56 141 63 141-1 0-78-155-14-162-118-5-82 145-84 179-34 5 7 8 16 11 25" id="v"/><path d="M179-190L93 31C79 59 56 82 12 73V49c39 6 53-20 64-50L1-190h34L92-34l54-156h33" id="w"/><path d="M135-143c-3-34-86-38-87 0 15 53 115 12 119 90S17 21 10-45l28-5c4 36 97 45 98 0-10-56-113-15-118-90-4-57 82-63 122-42 12 7 21 19 24 35" id="x"/><path d="M59-47c-2 24 18 29 38 22v24C64 9 27 4 27-40v-127H5v-23h24l9-43h21v43h35v23H59v120" id="y"/><path d="M100-194c63 0 86 42 84 106H49c0 40 14 67 53 68 26 1 43-12 49-29l28 8c-11 28-37 45-77 45C44 4 14-33 15-96c1-61 26-98 85-98zm52 81c6-60-76-77-97-28-3 7-6 17-6 28h103" id="z"/><path d="M210-169c-67 3-38 105-44 169h-31v-121c0-29-5-50-35-48C34-165 62-65 56 0H25l-1-190h30c1 10-1 24 2 32 10-44 99-50 107 0 11-21 27-35 58-36 85-2 47 119 55 194h-31v-121c0-29-5-49-35-48" id="A"/><g id="b"><use transform="matrix(0.05,0,0,0.05,0,0)" xlink:href="#v"/><use transform="matrix(0.05,0,0,0.05,12,0)" xlink:href="#w"/><use transform="matrix(0.05,0,0,0.05,21,0)" xlink:href="#x"/><use transform="matrix(0.05,0,0,0.05,30,0)" xlink:href="#y"/><use transform="matrix(0.05,0,0,0.05,35,0)" xlink:href="#z"/><use transform="matrix(0.05,0,0,0.05,45,0)" xlink:href="#A"/></g><path d="M30 0v-248h33v221h125V0H30" id="B"/><path d="M100-194c62-1 85 37 85 99 1 63-27 99-86 99S16-35 15-95c0-66 28-99 85-99zM99-20c44 1 53-31 53-75 0-43-8-75-51-75s-53 32-53 75 10 74 51 75" id="C"/><path d="M177-190C167-65 218 103 67 71c-23-6-38-20-44-43l32-5c15 47 100 32 89-28v-30C133-14 115 1 83 1 29 1 15-40 15-95c0-56 16-97 71-98 29-1 48 16 59 35 1-10 0-23 2-32h30zM94-22c36 0 50-32 50-73 0-42-14-75-50-75-39 0-46 34-46 75s6 73 46 73" id="D"/><path d="M96-169c-40 0-48 33-48 73s9 75 48 75c24 0 41-14 43-38l32 2c-6 37-31 61-74 61-59 0-76-41-82-99-10-93 101-131 147-64 4 7 5 14 7 22l-32 3c-4-21-16-35-41-35" id="E"/><path d="M141-36C126-15 110 5 73 4 37 3 15-17 15-53c-1-64 63-63 125-63 3-35-9-54-41-54-24 1-41 7-42 31l-33-3c5-37 33-52 76-52 45 0 72 20 72 64v82c-1 20 7 32 28 27v20c-31 9-61-2-59-35zM48-53c0 20 12 33 32 33 41-3 63-29 60-74-43 2-92-5-92 41" id="F"/><path d="M24 0v-261h32V0H24" id="G"/><g id="c"><use transform="matrix(0.05,0,0,0.05,0,0)" xlink:href="#B"/><use transform="matrix(0.05,0,0,0.05,10,0)" xlink:href="#C"/><use transform="matrix(0.05,0,0,0.05,20,0)" xlink:href="#D"/><use transform="matrix(0.05,0,0,0.05,30,0)" xlink:href="#t"/><use transform="matrix(0.05,0,0,0.05,33.95,0)" xlink:href="#E"/><use transform="matrix(0.05,0,0,0.05,42.95,0)" xlink:href="#F"/><use transform="matrix(0.05,0,0,0.05,52.95,0)" xlink:href="#G"/></g><path d="M137 0h-34L2-248h35l83 218 83-218h36" id="H"/><path d="M206 0h-36l-40-164L89 0H53L-1-190h32L70-26l43-164h34l41 164 42-164h31" id="I"/><g id="d"><use transform="matrix(0.05,0,0,0.05,0,0)" xlink:href="#H"/><use transform="matrix(0.05,0,0,0.05,11.65,0)" xlink:href="#t"/><use transform="matrix(0.05,0,0,0.05,15.600000000000001,0)" xlink:href="#z"/><use transform="matrix(0.05,0,0,0.05,25.6,0)" xlink:href="#I"/></g><path d="M30 0v-248h187v28H63v79h144v27H63v87h162V0H30" id="J"/><path d="M141 0L90-78 38 0H4l68-98-65-92h35l48 74 47-74h35l-64 92 68 98h-35" id="K"/><path d="M114-163C36-179 61-72 57 0H25l-1-190h30c1 12-1 29 2 39 6-27 23-49 58-41v29" id="L"/><g id="e"><use transform="matrix(0.037654320987654304,0,0,0.037654320987654304,0,0)" xlink:href="#J"/><use transform="matrix(0.037654320987654304,0,0,0.037654320987654304,9.037037037037033,0)" xlink:href="#K"/><use transform="matrix(0.037654320987654304,0,0,0.037654320987654304,15.814814814814808,0)" xlink:href="#y"/><use transform="matrix(0.037654320987654304,0,0,0.037654320987654304,19.580246913580236,0)" xlink:href="#z"/><use transform="matrix(0.037654320987654304,0,0,0.037654320987654304,27.1111111111111,0)" xlink:href="#L"/><use transform="matrix(0.037654320987654304,0,0,0.037654320987654304,31.591975308641967,0)" xlink:href="#s"/><use transform="matrix(0.037654320987654304,0,0,0.037654320987654304,39.122839506172824,0)" xlink:href="#F"/><use transform="matrix(0.037654320987654304,0,0,0.037654320987654304,46.653703703703684,0)" xlink:href="#G"/></g><path d="M108 0H70L1-190h34L89-25l56-165h34" id="M"/><g id="f"><use transform="matrix(0.037654320987654304,0,0,0.037654320987654304,0,0)" xlink:href="#v"/><use transform="matrix(0.037654320987654304,0,0,0.037654320987654304,9.037037037037033,0)" xlink:href="#z"/><use transform="matrix(0.037654320987654304,0,0,0.037654320987654304,16.56790123456789,0)" xlink:href="#L"/><use transform="matrix(0.037654320987654304,0,0,0.037654320987654304,21.048765432098755,0)" xlink:href="#M"/><use transform="matrix(0.037654320987654304,0,0,0.037654320987654304,27.82654320987653,0)" xlink:href="#t"/><use transform="matrix(0.037654320987654304,0,0,0.037654320987654304,30.801234567901222,0)" xlink:href="#E"/><use transform="matrix(0.037654320987654304,0,0,0.037654320987654304,37.57901234567899,0)" xlink:href="#z"/><use transform="matrix(0.037654320987654304,0,0,0.037654320987654304,45.10987654320985,0)" xlink:href="#x"/></g><g id="g"><use transform="matrix(0.02530864197530864,0,0,0.02530864197530864,0,0)" xlink:href="#v"/><use transform="matrix(0.02530864197530864,0,0,0.02530864197530864,6.0740740740740735,0)" xlink:href="#t"/><use transform="matrix(0.02530864197530864,0,0,0.02530864197530864,8.073456790123457,0)" xlink:href="#D"/><use transform="matrix(0.02530864197530864,0,0,0.02530864197530864,13.135185185185184,0)" xlink:href="#F"/><use transform="matrix(0.02530864197530864,0,0,0.02530864197530864,18.196913580246914,0)" xlink:href="#L"/><use transform="matrix(0.02530864197530864,0,0,0.02530864197530864,21.20864197530864,0)" xlink:href="#L"/><use transform="matrix(0.02530864197530864,0,0,0.02530864197530864,24.220370370370368,0)" xlink:href="#F"/></g><path d="M30-248c118-7 216 8 213 122C240-48 200 0 122 0H30v-248zM63-27c89 8 146-16 146-99s-60-101-146-95v194" id="N"/><path d="M115-194c53 0 69 39 70 98 0 66-23 100-70 100C84 3 66-7 56-30L54 0H23l1-261h32v101c10-23 28-34 59-34zm-8 174c40 0 45-34 45-75 0-40-5-75-45-74-42 0-51 32-51 76 0 43 10 73 51 73" id="O"/><g id="h"><use transform="matrix(0.02530864197530864,0,0,0.02530864197530864,0,0)" xlink:href="#N"/><use transform="matrix(0.02530864197530864,0,0,0.02530864197530864,6.554938271604938,0)" xlink:href="#F"/><use transform="matrix(0.02530864197530864,0,0,0.02530864197530864,11.616666666666665,0)" xlink:href="#y"/><use transform="matrix(0.02530864197530864,0,0,0.02530864197530864,14.14753086419753,0)" xlink:href="#F"/><use transform="matrix(0.02530864197530864,0,0,0.02530864197530864,19.209259259259255,0)" xlink:href="#O"/><use transform="matrix(0.02530864197530864,0,0,0.02530864197530864,24.270987654320983,0)" xlink:href="#F"/><use transform="matrix(0.02530864197530864,0,0,0.02530864197530864,29.332716049382714,0)" xlink:href="#x"/><use transform="matrix(0.02530864197530864,0,0,0.02530864197530864,33.88827160493827,0)" xlink:href="#z"/></g><path d="M106-169C34-169 62-67 57 0H25v-261h32l-1 103c12-21 28-36 61-36 89 0 53 116 60 194h-32v-121c2-32-8-49-39-48" id="P"/><g id="i"><use transform="matrix(0.02530864197530864,0,0,0.02530864197530864,0,0)" xlink:href="#v"/><use transform="matrix(0.02530864197530864,0,0,0.02530864197530864,6.0740740740740735,0)" xlink:href="#E"/><use transform="matrix(0.02530864197530864,0,0,0.02530864197530864,10.62962962962963,0)" xlink:href="#P"/><use transform="matrix(0.02530864197530864,0,0,0.02530864197530864,15.691358024691356,0)" xlink:href="#z"/><use transform="matrix(0.02530864197530864,0,0,0.02530864197530864,20.753086419753085,0)" xlink:href="#A"/><use transform="matrix(0.02530864197530864,0,0,0.02530864197530864,28.320370370370366,0)" xlink:href="#F"/></g><path d="M30-248c87 1 191-15 191 75 0 78-77 80-158 76V0H30v-248zm33 125c57 0 124 11 124-50 0-59-68-47-124-48v98" id="Q"/><path d="M101-234c-31-9-42 10-38 44h38v23H63V0H32v-167H5v-23h27c-7-52 17-82 69-68v24" id="R"/><g id="j"><use transform="matrix(0.031481481481481485,0,0,0.031481481481481485,0,0)" xlink:href="#Q"/><use transform="matrix(0.031481481481481485,0,0,0.031481481481481485,7.555555555555556,0)" xlink:href="#L"/><use transform="matrix(0.031481481481481485,0,0,0.031481481481481485,11.301851851851854,0)" xlink:href="#C"/><use transform="matrix(0.031481481481481485,0,0,0.031481481481481485,17.59814814814815,0)" xlink:href="#R"/><use transform="matrix(0.031481481481481485,0,0,0.031481481481481485,20.7462962962963,0)" xlink:href="#t"/><use transform="matrix(0.031481481481481485,0,0,0.031481481481481485,23.233333333333338,0)" xlink:href="#G"/><use transform="matrix(0.031481481481481485,0,0,0.031481481481481485,25.720370370370375,0)" xlink:href="#z"/></g><path d="M240 0l2-218c-23 76-54 145-80 218h-23L58-218 59 0H30v-248h44l77 211c21-75 51-140 76-211h43V0h-30" id="S"/><g id="k"><use transform="matrix(0.031481481481481485,0,0,0.031481481481481485,0,0)" xlink:href="#S"/><use transform="matrix(0.031481481481481485,0,0,0.031481481481481485,9.412962962962965,0)" xlink:href="#F"/><use transform="matrix(0.031481481481481485,0,0,0.031481481481481485,15.709259259259262,0)" xlink:href="#s"/><use transform="matrix(0.031481481481481485,0,0,0.031481481481481485,22.00555555555556,0)" xlink:href="#F"/><use transform="matrix(0.031481481481481485,0,0,0.031481481481481485,28.301851851851858,0)" xlink:href="#D"/><use transform="matrix(0.031481481481481485,0,0,0.031481481481481485,34.598148148148155,0)" xlink:href="#z"/><use transform="matrix(0.031481481481481485,0,0,0.031481481481481485,40.89444444444445,0)" xlink:href="#A"/><use transform="matrix(0.031481481481481485,0,0,0.031481481481481485,50.30740740740742,0)" xlink:href="#z"/><use transform="matrix(0.031481481481481485,0,0,0.031481481481481485,56.603703703703715,0)" xlink:href="#s"/><use transform="matrix(0.031481481481481485,0,0,0.031481481481481485,62.90000000000001,0)" xlink:href="#y"/></g><g id="l"><use transform="matrix(0.031481481481481485,0,0,0.031481481481481485,0,0)" xlink:href="#B"/><use transform="matrix(0.031481481481481485,0,0,0.031481481481481485,6.296296296296297,0)" xlink:href="#C"/><use transform="matrix(0.031481481481481485,0,0,0.031481481481481485,12.592592592592593,0)" xlink:href="#D"/><use transform="matrix(0.031481481481481485,0,0,0.031481481481481485,18.88888888888889,0)" xlink:href="#t"/><use transform="matrix(0.031481481481481485,0,0,0.031481481481481485,21.375925925925927,0)" xlink:href="#E"/></g><g id="m"><use transform="matrix(0.043827160493827164,0,0,0.043827160493827164,0,0)" xlink:href="#r"/><use transform="matrix(0.043827160493827164,0,0,0.043827160493827164,11.351234567901235,0)" xlink:href="#s"/><use transform="matrix(0.043827160493827164,0,0,0.043827160493827164,20.116666666666667,0)" xlink:href="#t"/><use transform="matrix(0.043827160493827164,0,0,0.043827160493827164,23.579012345679008,0)" xlink:href="#u"/><use transform="matrix(0.043827160493827164,0,0,0.043827160493827164,32.782716049382714,0)" xlink:href="#u"/></g><g id="n"><use transform="matrix(0.043827160493827164,0,0,0.043827160493827164,0,0)" xlink:href="#S"/><use transform="matrix(0.043827160493827164,0,0,0.043827160493827164,13.104320987654322,0)" xlink:href="#C"/><use transform="matrix(0.043827160493827164,0,0,0.043827160493827164,21.869753086419756,0)" xlink:href="#O"/><use transform="matrix(0.043827160493827164,0,0,0.043827160493827164,30.635185185185186,0)" xlink:href="#t"/><use transform="matrix(0.043827160493827164,0,0,0.043827160493827164,34.09753086419753,0)" xlink:href="#G"/><use transform="matrix(0.043827160493827164,0,0,0.043827160493827164,37.559876543209874,0)" xlink:href="#z"/></g><path d="M33 0v-248h34V0H33" id="T"/><g id="o"><use transform="matrix(0.043827160493827164,0,0,0.043827160493827164,0,0)" xlink:href="#r"/><use transform="matrix(0.043827160493827164,0,0,0.043827160493827164,11.351234567901235,0)" xlink:href="#T"/></g><g id="p"><use transform="matrix(0.031481481481481485,0,0,0.031481481481481485,0,0)" xlink:href="#B"/><use transform="matrix(0.031481481481481485,0,0,0.031481481481481485,6.296296296296297,0)" xlink:href="#C"/><use transform="matrix(0.031481481481481485,0,0,0.031481481481481485,12.592592592592593,0)" xlink:href="#E"/><use transform="matrix(0.031481481481481485,0,0,0.031481481481481485,18.25925925925926,0)" xlink:href="#F"/><use transform="matrix(0.031481481481481485,0,0,0.031481481481481485,24.555555555555557,0)" xlink:href="#G"/></g><g id="q"><use transform="matrix(0.031481481481481485,0,0,0.031481481481481485,0,0)" xlink:href="#v"/><use transform="matrix(0.031481481481481485,0,0,0.031481481481481485,7.555555555555556,0)" xlink:href="#y"/><use transform="matrix(0.031481481481481485,0,0,0.031481481481481485,10.703703703703704,0)" xlink:href="#C"/><use transform="matrix(0.031481481481481485,0,0,0.031481481481481485,17,0)" xlink:href="#L"/><use transform="matrix(0.031481481481481485,0,0,0.031481481481481485,20.746296296296297,0)" xlink:href="#F"/><use transform="matrix(0.031481481481481485,0,0,0.031481481481481485,27.042592592592595,0)" xlink:href="#D"/><use transform="matrix(0.031481481481481485,0,0,0.031481481481481485,33.33888888888889,0)" xlink:href="#z"/></g></defs></g></svg>